# Made in Blockbench 5.1.3
mtllib Paredes_Habitaciones_Corredor.mtl

o Paredes_Habitaciones_Corredor
v 9.375 2.25 -1.7812499999999998
v 6.875 2.25 -1.7812500000000002
v 9.375 0.6875 -1.7812499999999998
v 6.875 0.6875 -1.7812500000000002
v 9.375 2.25 -1.6562499999999998
v 6.875 2.25 -1.6562500000000002
v 9.375 0.6875 -1.6562499999999998
v 6.875 0.6875 -1.6562500000000002
v 6.749999999999999 2.25 -2.03125
v 6.124999999999999 2.25 -2.03125
v 6.749999999999999 1.9375 -2.03125
v 6.124999999999999 1.9375 -2.03125
v 6.75 2.25 -1.90625
v 6.125 2.25 -1.90625
v 6.75 1.9375 -1.90625
v 6.125 1.9375 -1.90625
v 1.375 2.25 -1.7812499999999998
v -0.0625 2.25 -1.7812500000000002
v 1.375 0.6875 -1.7812499999999998
v -0.0625 0.6875 -1.7812500000000002
v 1.375 2.25 -1.6562499999999998
v -0.0625 2.25 -1.6562500000000002
v 1.375 0.6875 -1.6562499999999998
v -0.0625 0.6875 -1.6562500000000002
v 6 2.25 -1.7812499999999996
v 2.25 2.25 -1.7812500000000002
v 6 0.6875 -1.7812499999999996
v 2.25 0.6875 -1.7812500000000002
v 6 2.25 -1.6562499999999996
v 2.25 2.25 -1.6562500000000002
v 6 0.6875 -1.6562499999999996
v 2.25 0.6875 -1.6562500000000002
v 4.125 2.25 -1.78125
v 4.125 0.6875 -1.78125
v 4.125 0.6875 -1.65625
v 4.125 2.25 -1.65625
v 2.125 2.25 -2.03125
v 1.5 2.25 -2.03125
v 2.125 1.9375 -2.03125
v 1.5 1.9375 -2.03125
v 2.125 2.25 -1.90625
v 1.5 2.25 -1.9062500000000002
v 2.125 1.9375 -1.90625
v 1.5 1.9375 -1.9062500000000002
vt 0.5147515450310559 0.08532643826761477
vt 0.4153726630434783 0.08532643826761477
vt 0.4153726630434783 0.0025856496444731647
vt 0.5147515450310559 0.0025856496444731647
vt 0.7088509394409938 0.0025856496444731647
vt 0.7088509394409938 0.08532643826761477
vt 0.6094720574534161 0.08532643826761477
vt 0.6094720574534161 0.0025856496444731647
vt 0.6669254580745342 0.01959336134453793
vt 0.7404417934782609 0.01959336134453793
vt 0.7404417934782609 0.04783453135100191
vt 0.6669254580745342 0.04783453135100191
vt 0.7505349922360248 0.049974770523594
vt 0.7505349922360248 0.02262444731738844
vt 0.6335403881987577 0.02262444731738844
vt 0.6335403881987577 0.049974770523594
vt 0.7451001940993789 0.05981941822882997
vt 0.7451001940993789 0.028442146089204923
vt 0.6715838586956522 0.028442146089204923
vt 0.6715838586956522 0.05981941822882997
vt 0.7870256677018634 0.07821590820943758
vt 0.6816770263975155 0.07821590820943758
vt 0.6816770263975155 0.019741848739495804
vt 0.7870256677018634 0.019741848739495804
vt 0.4790372748447205 0.08532643826761477
vt 0.42934783385093167 0.08532643826761477
vt 0.42934783385093167 0.05946994182288301
vt 0.4790372748447205 0.05946994182288301
vt 0.714285698757764 0.05946994182288301
vt 0.714285698757764 0.08532643826761477
vt 0.6645962577639752 0.08532643826761477
vt 0.6645962577639752 0.05946994182288301
vt 0.636645947204969 0.03878474466709758
vt 0.72180825310559 0.03878474466709758
vt 0.72180825310559 0.06961153846153845
vt 0.636645947204969 0.06961153846153845
vt 0.7249138586956522 0.01680672268907568
vt 0.7249138586956522 0.07672207498383965
vt 0.6343167779503105 0.07672207498383965
vt 0.6343167779503105 0.01680672268907568
vt 0.7544169720496895 0.013277705235940518
vt 0.7544169720496895 0.03749190691661286
vt 0.6327639906832297 0.03749190691661286
vt 0.6327639906832297 0.013277705235940518
vt 0.771497701863354 0.06981253393665166
vt 0.6661490605590062 0.06981253393665166
vt 0.6661490605590062 0.01133847446670977
vt 0.771497701863354 0.01133847446670977
vt 0.5605590139751553 0.08532643826761477
vt 0.4518633618012422 0.08532643826761477
vt 0.4518633618012422 0.0025856496444731647
vt 0.5605590139751553 0.0025856496444731647
vt 0.7127329114906833 0.0025856496444731647
vt 0.7127329114906833 0.08532643826761477
vt 0.6040372593167702 0.08532643826761477
vt 0.6040372593167702 0.0025856496444731647
vt 0.6777950232919255 0.023917259211376884
vt 0.7683921040372671 0.023917259211376884
vt 0.7683921040372671 0.0728436005171299
vt 0.6777950232919255 0.0728436005171299
vt 0.7357834316770187 0.03619909502262442
vt 0.7357834316770187 0.07801489980607623
vt 0.642857150621118 0.07801489980607623
vt 0.642857150621118 0.03619909502262442
vt 0.7676157065217392 0.006167194570135703
vt 0.7676157065217392 0.06464125404007759
vt 0.6622670652173913 0.06464125404007759
vt 0.6622670652173913 0.006167194570135703
vt 0.7489821661490683 0.07950873949579829
vt 0.6436335248447206 0.07950873949579829
vt 0.6436335248447206 0.0210346800258564
vt 0.7489821661490683 0.0210346800258564
vt 0.5023292080745341 0.0025856496444731647
vt 0.6017080900621118 0.0025856496444731647
vt 0.6017080900621118 0.08532643826761477
vt 0.5023292080745341 0.08532643826761477
vt 0.7102830124223602 0.08532643826761477
vt 0.6109041304347826 0.08532643826761477
vt 0.6109041304347826 0.0025856496444731647
vt 0.7102830124223602 0.0025856496444731647
vt 0.7544169565217391 0.01183641887524245
vt 0.7544169565217391 0.05569195862960563
vt 0.6490683152173913 0.05569195862960563
vt 0.6490683152173913 0.01183641887524245
vt 0.6374223757763975 0.06270201034259859
vt 0.6374223757763975 0.028542656755009777
vt 0.7326778416149069 0.028542656755009777
vt 0.7326778416149069 0.06270201034259859
vt 0.7551933618012422 0.011635423400129241
vt 0.7551933618012422 0.07010948287007113
vt 0.6498447204968945 0.07010948287007113
vt 0.6498447204968945 0.011635423400129241
vt 0.7427709937888198 0.05494504201680672
vt 0.6513975077639752 0.05494504201680672
vt 0.6513975077639752 0.0165097737556561
vt 0.7427709937888198 0.0165097737556561
vt 0.5107488586956521 0.08532643826761477
vt 0.4113699767080745 0.08532643826761477
vt 0.4113699767080745 0.0025856496444731647
vt 0.5107488586956521 0.0025856496444731647
vt 0.7544169720496895 0.015714893341952196
vt 0.7544169720496895 0.05957043309631538
vt 0.6490683307453416 0.05957043309631538
vt 0.6490683307453416 0.015714893341952196
vt 0.6979813664596274 0.0025856496444731647
vt 0.797360248447205 0.0025856496444731647
vt 0.797360248447205 0.08532643826761477
vt 0.6979813664596274 0.08532643826761477
vt 0.6645962655279504 0.058723031674208226
vt 0.6645962655279504 0.014867485455720697
vt 0.769944899068323 0.014867485455720697
vt 0.769944899068323 0.058723031674208226
vt 0.47826088509316766 0.08532643826761477
vt 0.42857144409937886 0.08532643826761477
vt 0.42857144409937886 0.05946994182288301
vt 0.47826088509316766 0.05946994182288301
vt 0.6612492624223603 0.04818398190045248
vt 0.6612492624223603 0.08144797026502903
vt 0.6063664440993789 0.08144797026502903
vt 0.6063664440993789 0.04818398190045248
vt 0.6630434704968944 0.03898575953458305
vt 0.7582989440993788 0.03898575953458305
vt 0.7582989440993788 0.08015515190691658
vt 0.6630434704968944 0.08015515190691658
vt 0.740441801242236 0.023471848739495815
vt 0.740441801242236 0.05494505494505497
vt 0.6552794953416149 0.05494505494505497
vt 0.6552794953416149 0.023471848739495815
vt 0.731901444099379 0.01715618616677439
vt 0.731901444099379 0.047834511958629644
vt 0.6482919409937887 0.047834511958629644
vt 0.6482919409937887 0.01715618616677439
vt 0.7489821661490683 0.08532643826761477
vt 0.6436335248447206 0.08532643826761477
vt 0.6436335248447206 0.026852385261797007
vt 0.7489821661490683 0.026852385261797007
vn 2.220446049250313e-16 0 -1
vn -2.220446049250313e-16 0 1
vn 0 1 0
vn 0 -1 0
vn 1 0 2.220446049250313e-16
vn -1 0 -2.220446049250313e-16
vn 2.220446049250313e-16 0 -1
vn 1.332267629550188e-16 0 1
vn 0 1 0
vn 0 -1 0
vn 1 0 -6.883382752675983e-15
vn -1 0 6.8833827526759706e-15
vn 3.765104170467922e-16 0 -1
vn -3.765104170467922e-16 0 1
vn 0 1 0
vn 0 -1 0
vn 1 0 2.220446049250313e-16
vn -1 0 -2.220446049250313e-16
vn 2.220446049250313e-16 0 -1
vn -2.220446049250313e-16 0 1
vn 0 1 0
vn 0 -1 0
vn 1 0 2.220446049250313e-16
vn -1 0 -2.220446049250313e-16
vn 1.0362081563168128e-16 0 -1
vn 0 -1 0
vn -1.0362081563168128e-16 0 1
vn 0 1 0
vn 2.220446049250313e-16 0 -1
vn -2.220446049250313e-16 0 1
vn 0 1 0
vn 0 -1 0
vn 1 0 2.220446049250313e-16
vn -1 0 -2.220446049250313e-16
usemtl m_82ea898d-8d7f-32a8-6107-256ec768d5ba
f 2/1/1 1/2/1 3/3/1 4/4/1
f 7/5/2 5/6/2 6/7/2 8/8/2
f 5/9/3 1/10/3 2/11/3 6/12/3
f 4/13/4 3/14/4 7/15/4 8/16/4
f 3/17/5 1/18/5 5/19/5 7/20/5
f 6/21/6 2/22/6 4/23/6 8/24/6
f 10/25/7 9/26/7 11/27/7 12/28/7
f 15/29/8 13/30/8 14/31/8 16/32/8
f 13/33/9 9/34/9 10/35/9 14/36/9
f 12/37/10 11/38/10 15/39/10 16/40/10
f 11/41/11 9/42/11 13/43/11 15/44/11
f 14/45/12 10/46/12 12/47/12 16/48/12
f 18/49/13 17/50/13 19/51/13 20/52/13
f 23/53/14 21/54/14 22/55/14 24/56/14
f 21/57/15 17/58/15 18/59/15 22/60/15
f 20/61/16 19/62/16 23/63/16 24/64/16
f 19/65/17 17/66/17 21/67/17 23/68/17
f 22/69/18 18/70/18 20/71/18 24/72/18
f 27/73/19 34/74/19 33/75/19 25/76/19
f 29/77/20 36/78/20 35/79/20 31/80/20
f 25/81/21 33/82/21 36/83/21 29/84/21
f 31/85/22 35/86/22 34/87/22 27/88/22
f 27/89/23 25/90/23 29/91/23 31/92/23
f 30/93/24 26/94/24 28/95/24 32/96/24
f 26/97/25 33/98/25 34/99/25 28/100/25
f 28/101/26 34/102/26 35/103/26 32/104/26
f 32/105/27 35/106/27 36/107/27 30/108/27
f 30/109/28 36/110/28 33/111/28 26/112/28
f 38/113/29 37/114/29 39/115/29 40/116/29
f 43/117/30 41/118/30 42/119/30 44/120/30
f 41/121/31 37/122/31 38/123/31 42/124/31
f 40/125/32 39/126/32 43/127/32 44/128/32
f 39/129/33 37/130/33 41/131/33 43/132/33
f 42/133/34 38/134/34 40/135/34 44/136/34