# Made in Blockbench 5.1.3
mtllib Pared_Sala_habitación.mtl

o Pared_Sala_habitación
v 4.21875 2.25 -0.15625
v 4.21875 2.25 6.25
v 4.21875 0.6875 -0.15625
v 4.21875 0.6875 6.25
v 4.34375 2.25 -0.15625
v 4.34375 2.25 6.25
v 4.34375 0.6875 -0.15625
v 4.34375 0.6875 6.25
vt 0.39220464285714285 0.08532643826761477
vt 0.1943415760869565 0.08522594699418229
vt 0.19344687888198758 0.0025856496444731647
vt 0.39220464285714285 0.0025856496444731647
vt 0.5993788819875776 0.0025856496444731647
vt 0.5993788819875776 0.08532643826761477
vt 0.40062111801242234 0.08532643826761477
vt 0.40062111801242234 0.0025856496444731647
vt 0.612577655279503 0.0025856496444731647
vt 0.6156832453416149 0.0025856496444731647
vt 0.6156832453416149 0.08532643826761477
vt 0.612577655279503 0.08532643826761477
vt 0.7086094875776398 0.013129237233354907
vt 0.7086094875776398 0.06722687782805437
vt 0.6832298291925465 0.06722687782805437
vt 0.6832298291925465 0.013129237233354907
vt 0.6127943711180124 0.003232062055591456
vt 0.6127943711180124 0.08597285067873306
vt 0.6120179736024844 0.08597285067873306
vt 0.6120179736024844 0.003232062055591456
vt 0.7835222593167702 0.07821588881706532
vt 0.6781736180124224 0.07821588881706532
vt 0.6781736180124224 0.019741835811247554
vt 0.7835222593167702 0.019741835811247554
vn -1 0 1.2246467991473532e-16
vn 1 0 -1.2246467991473532e-16
vn 0 1 0
vn 0 -1 0
vn -1.2246467991473532e-16 0 -1
vn 1.2246467991473532e-16 0 1
usemtl m_82ea898d-8d7f-32a8-6107-256ec768d5ba
f 2/1/1 1/2/1 3/3/1 4/4/1
f 7/5/2 5/6/2 6/7/2 8/8/2
f 5/9/3 1/10/3 2/11/3 6/12/3
f 4/13/4 3/14/4 7/15/4 8/16/4
f 3/17/5 1/18/5 5/19/5 7/20/5
f 6/21/6 2/22/6 4/23/6 8/24/6