# Made in Blockbench 5.1.3
mtllib Paredes_Verticales_Sala_Entrada.mtl

o Paredes_Verticales_Sala_Entrada
v -5.28125 2.25 4.5625
v -5.28125 2.25 6.125
v -5.28125 0.6875 4.5625
v -5.28125 0.6875 6.125
v -5.15625 2.25 4.5625
v -5.15625 2.25 6.125
v -5.15625 0.6875 4.5625
v -5.15625 0.6875 6.125
v -5.281249999999999 2.25 2.3750000000000004
v -5.28125 2.25 4.5625
v -5.281249999999999 1.9375 2.3750000000000004
v -5.28125 1.9375 4.5625
v -5.156249999999999 2.25 2.3750000000000004
v -5.15625 2.25 4.5625
v -5.156249999999999 1.9375 2.3750000000000004
v -5.15625 1.9375 4.5625
v -5.28125 2.25 1.53125
v -5.281249999999999 2.25 2.3750000000000004
v -5.28125 0.6875 1.53125
v -5.281249999999999 0.6875 2.3750000000000004
v -5.15625 2.25 1.53125
v -5.156249999999999 2.25 2.3750000000000004
v -5.15625 0.6875 1.53125
v -5.156249999999999 0.6875 2.3750000000000004
vt 0.33188249999999997 0.08532643826761477
vt 0.23250361801242234 0.08532643826761477
vt 0.23250361801242234 0.0025856496444731647
vt 0.33188249999999997 0.0025856496444731647
vt 0.35812510093167704 0.0025856496444731647
vt 0.3584384394409938 0.08532643826761477
vt 0.25905955745341613 0.08532643826761477
vt 0.25905955745341613 0.0025856496444731647
vt 0.6088575232919254 0.02649606981254049
vt 0.7072185791925466 0.02649606981254049
vt 0.7072185791925466 0.08317932773109238
vt 0.6088575232919254 0.08317932773109238
vt 0.6915671739130435 0.034460859728506765
vt 0.6915671739130435 0.07110536522301225
vt 0.6079576630434783 0.07110536522301225
vt 0.6079576630434783 0.034460859728506765
vt 0.3546367158385093 0.002609644473173911
vt 0.3546367158385093 0.08532643826761477
vt 0.36075667701863356 0.08532643826761477
vt 0.36075667701863356 0.002609644473173911
vt 0.7156848757763975 0.07849457013574657
vt 0.6103362344720497 0.07849457013574657
vt 0.6103362344720497 0.02002051066580479
vt 0.7156848757763975 0.02002051066580479
vt 0.5081782298136646 0.08532643826761477
vt 0.40879934782608696 0.08532643826761477
vt 0.40879934782608696 0.05946994182288301
vt 0.5078188121118012 0.05965999353587592
vt 0.397717849378882 0.05946994182288301
vt 0.397717849378882 0.08532643826761477
vt 0.29833896739130433 0.08532643826761477
vt 0.29833896739130433 0.05946994182288301
vt 0.6292770341614907 0.02467558500323197
vt 0.7214269177018633 0.02467558500323197
vt 0.7214269177018633 0.082005287653523
vt 0.6292770341614907 0.082005287653523
vt 0.694074697204969 0.04977375565610864
vt 0.694074697204969 0.08900391079508718
vt 0.6477322748447205 0.08900391079508718
vt 0.6477322748447205 0.04977375565610864
vt 0.7034490683229814 0.03676784744667094
vt 0.7034490683229814 0.06679975436328378
vt 0.640025900621118 0.06679975436328378
vt 0.640025900621118 0.03676784744667094
vt 0.6812106288819876 0.05999757595345834
vt 0.6146818711180124 0.05999757595345834
vt 0.6146818711180124 0.03772261797026499
vt 0.6812106288819876 0.03772261797026499
vt 0.28843718167701865 0.08532643826761477
vt 0.23874774068322982 0.08532643826761477
vt 0.23874774068322982 0.0025856496444731647
vt 0.28843718167701865 0.0025856496444731647
vt 0.28903728260869566 0.0025856496444731647
vt 0.28903728260869566 0.08532643826761477
vt 0.23934784161490683 0.08532643826761477
vt 0.23934784161490683 0.0025856496444731647
vt 0.63223174689441 0.028524389140271555
vt 0.7375803881987578 0.028524389140271555
vt 0.7375803881987578 0.07163301228183583
vt 0.63223174689441 0.07163301228183583
vt 0.7491989052795032 0.024029191984486165
vt 0.7491989052795032 0.04839185520361988
vt 0.6997508850931677 0.04839185520361988
vt 0.6997508850931677 0.024029191984486165
vt 0.7245050776397516 0.012281835811247532
vt 0.7245050776397516 0.0707558888170653
vt 0.6191564440993789 0.0707558888170653
vt 0.6191564440993789 0.012281835811247532
vt 0.39741332298136645 0.08532643826761477
vt 0.3849909627329193 0.08532643826761477
vt 0.3849909627329193 0.0025856496444731647
vt 0.39741332298136645 0.0025856496444731647
vn -1 0 1.2246467991473532e-16
vn 1 0 -1.2246467991473532e-16
vn 0 1 0
vn 0 -1 0
vn -1.2246467991473532e-16 0 -1
vn 1.2246467991473532e-16 0 1
vn -1 0 -2.8355974051960775e-16
vn 1 0 2.8355974051960775e-16
vn 0 1 0
vn 0 -1 0
vn -1.2246467991473532e-16 0 -1
vn 1.2246467991473532e-16 0 1
vn -1 0 1.2246467991473532e-16
vn 1 0 -1.2246467991473532e-16
vn 0 1 0
vn 0 -1 0
vn -1.2246467991473532e-16 0 -1
vn 1.2246467991473532e-16 0 1
usemtl m_82ea898d-8d7f-32a8-6107-256ec768d5ba
f 2/1/1 1/2/1 3/3/1 4/4/1
f 7/5/2 5/6/2 6/7/2 8/8/2
f 5/9/3 1/10/3 2/11/3 6/12/3
f 4/13/4 3/14/4 7/15/4 8/16/4
f 3/17/5 1/18/5 5/19/5 7/20/5
f 6/21/6 2/22/6 4/23/6 8/24/6
f 10/25/7 9/26/7 11/27/7 12/28/7
f 15/29/8 13/30/8 14/31/8 16/32/8
f 13/33/9 9/34/9 10/35/9 14/36/9
f 12/37/10 11/38/10 15/39/10 16/40/10
f 11/41/11 9/42/11 13/43/11 15/44/11
f 14/45/12 10/46/12 12/47/12 16/48/12
f 18/49/13 17/50/13 19/51/13 20/52/13
f 23/53/14 21/54/14 22/55/14 24/56/14
f 21/57/15 17/58/15 18/59/15 22/60/15
f 20/61/16 19/62/16 23/63/16 24/64/16
f 19/65/17 17/66/17 21/67/17 23/68/17
f 22/69/18 18/70/18 20/71/18 24/72/18