# Made in Blockbench 5.1.3
mtllib Paredes_Habitación_Habitación.mtl

o Paredes_Habitación_Habitación
v 4.25 2.25 -1.78125
v 4.25 2.25 -6.25
v 4.25 0.6875 -1.78125
v 4.25 0.6875 -6.25
v 4.125 2.25 -1.78125
v 4.125 2.25 -6.25
v 4.125 0.6875 -1.78125
v 4.125 0.6875 -6.25
v 6.125 2.25 -1.65625
v 6.125 2.25 -2.65625
v 6.125 0.6875 -1.65625
v 6.125 0.6875 -2.65625
v 6 2.25 -1.65625
v 6 2.25 -2.65625
v 6 0.6875 -1.65625
v 6 0.6875 -2.65625
v 6.875 2.25 -1.65625
v 6.875 2.25 -2.03125
v 6.875 0.6875 -1.65625
v 6.875 0.6875 -2.03125
v 6.75 2.25 -1.65625
v 6.75 2.25 -2.03125
v 6.75 0.6875 -1.65625
v 6.75 0.6875 -2.03125
vt 0.7981366537267081 0.08532643826761477
vt 0.5993788897515527 0.08532643826761477
vt 0.5993788897515527 0.0025856496444731647
vt 0.7981366537267081 0.0025856496444731647
vt 0.5993788664596273 0.0025856496444731647
vt 0.5993788664596273 0.08532643826761477
vt 0.4006211024844721 0.08532643826761477
vt 0.4006211024844721 0.0025856496444731647
vt 0.6350931754658385 0.022179023917259233
vt 0.7388890217391305 0.022179023917259233
vt 0.7388890217391305 0.0601163542340013
vt 0.6350931754658385 0.0601163542340013
vt 0.7287958229813665 0.03640010989010989
vt 0.7287958229813665 0.06593407239819005
vt 0.614906847826087 0.06593407239819005
vt 0.614906847826087 0.03640010989010989
vt 0.7598517313664597 0.026852391725921132
vt 0.7598517313664597 0.05042018099547507
vt 0.654503097826087 0.05042018099547507
vt 0.654503097826087 0.026852391725921132
vt 0.7404418167701864 0.01680673561732382
vt 0.645186350931677 0.01680673561732382
vt 0.645186350931677 0.04818400129282474
vt 0.7404418167701864 0.04818400129282474
vt 0.5683060714285714 0.003079715578539144
vt 0.6177097826086956 0.0025856496444731647
vt 0.617424052795031 0.08532643826761477
vt 0.5680203416149068 0.08478299935358757
vt 0.45962732919254656 0.0025856496444731647
vt 0.45962732919254656 0.08532643826761477
vt 0.40993788819875776 0.08532643826761477
vt 0.40993788819875776 0.0025856496444731647
vt 0.677018649068323 0.01571491273432446
vt 0.7637337111801242 0.01571491273432446
vt 0.7637337111801242 0.05882354234001286
vt 0.677018649068323 0.05882354234001286
vt 0.7652865295031056 0.02670391079508727
vt 0.7652865295031056 0.08532643826761477
vt 0.6614906832298136 0.08532643826761477
vt 0.6614906832298136 0.02670391079508727
vt 0.6389751630434782 0.0025856496444731647
vt 0.6389751630434782 0.08532643826761477
vt 0.626552802795031 0.08532643826761477
vt 0.626552802795031 0.0025856496444731647
vt 0.7652865139751552 0.07950873949579829
vt 0.6599378804347826 0.07950873949579829
vt 0.6599378804347826 0.0210346800258564
vt 0.7652865139751552 0.0210346800258564
vt 0.4619565372670807 0.08532643826761477
vt 0.4122670962732919 0.08532643826761477
vt 0.4122670962732919 0.0025856496444731647
vt 0.4619565372670807 0.0025856496444731647
vt 0.6609022903726708 0.0026594053005817297
vt 0.6611880124223602 0.08478299935358757
vt 0.6117843478260869 0.08532643826761477
vt 0.6114985714285713 0.0025856496444731647
vt 0.6537267236024844 0.020239793148028484
vt 0.7326778105590063 0.020239793148028484
vt 0.7326778105590063 0.07498384615384612
vt 0.6537267236024844 0.07498384615384612
vt 0.7443238043478261 0.019392372333548846
vt 0.7443238043478261 0.07542924369747894
vt 0.6475155357142857 0.07542924369747894
vt 0.6475155357142857 0.019392372333548846
vt 0.7287958540372671 0.011338487394957908
vt 0.7287958540372671 0.06981254040077567
vt 0.6234472204968944 0.06981254040077567
vt 0.6234472204968944 0.011338487394957908
vt 0.562111801242236 0.08532643826761477
vt 0.5496894409937888 0.08532643826761477
vt 0.5496894409937888 0.0025856496444731647
vt 0.562111801242236 0.0025856496444731647
vn 1 0 0
vn -1 0 0
vn 0 1 0
vn 0 -1 0
vn 0 0 1
vn 0 0 -1
vn 1 0 0
vn -1 0 0
vn 0 1 0
vn 0 -1 0
vn 0 0 1
vn 0 0 -1
vn 1 0 0
vn -1 0 0
vn 0 1 0
vn 0 -1 0
vn 0 0 1
vn 0 0 -1
usemtl m_82ea898d-8d7f-32a8-6107-256ec768d5ba
f 2/1/1 1/2/1 3/3/1 4/4/1
f 7/5/2 5/6/2 6/7/2 8/8/2
f 5/9/3 1/10/3 2/11/3 6/12/3
f 4/13/4 3/14/4 7/15/4 8/16/4
f 3/17/5 1/18/5 5/19/5 7/20/5
f 6/21/6 2/22/6 4/23/6 8/24/6
f 10/25/7 9/26/7 11/27/7 12/28/7
f 15/29/8 13/30/8 14/31/8 16/32/8
f 13/33/9 9/34/9 10/35/9 14/36/9
f 12/37/10 11/38/10 15/39/10 16/40/10
f 11/41/11 9/42/11 13/43/11 15/44/11
f 14/45/12 10/46/12 12/47/12 16/48/12
f 18/49/13 17/50/13 19/51/13 20/52/13
f 23/53/14 21/54/14 22/55/14 24/56/14
f 21/57/15 17/58/15 18/59/15 22/60/15
f 20/61/16 19/62/16 23/63/16 24/64/16
f 19/65/17 17/66/17 21/67/17 23/68/17
f 22/69/18 18/70/18 20/71/18 24/72/18